<svg xmlns="http://www.w3.org/2000/svg" xmlns:xlink="http://www.w3.org/1999/xlink" width="400" zoomAndPan="magnify" viewBox="100 150 400 300" height="420" preserveAspectRatio="xMidYMid meet" version="1.0"><path fill="#ebcc90" d="M 240.394531 259.128906 C 241.425781 255.128906 242.199219 251.683594 242.710938 248.777344 C 243.226562 245.871094 243.484375 243.261719 243.484375 240.945312 C 243.484375 235.65625 242.226562 231.238281 239.710938 227.695312 C 237.195312 224.144531 233.550781 221.730469 228.78125 220.441406 C 226.199219 219.667969 222.589844 218.957031 217.949219 218.308594 C 212.015625 217.535156 209.050781 215.988281 209.050781 213.667969 C 209.050781 212.378906 209.761719 211.378906 211.179688 210.671875 C 212.597656 209.960938 214.660156 209.605469 217.371094 209.605469 C 219.5625 209.605469 222.621094 209.671875 226.558594 209.796875 C 230.492188 209.929688 233.234375 209.992188 234.777344 209.992188 C 270.25 209.992188 304.605469 205.027344 337.882812 195.097656 C 343.296875 193.417969 346.589844 192.582031 347.738281 192.582031 C 349.035156 192.582031 350.058594 193.03125 350.835938 193.941406 C 351.609375 194.839844 352.003906 196.136719 352.003906 197.808594 C 352.003906 198.710938 351.96875 199.355469 351.914062 199.742188 C 351.839844 200.128906 351.734375 200.578125 351.609375 201.089844 L 295.828125 432.183594 C 295.054688 435.925781 294.53125 438.730469 294.285156 440.605469 C 294.011719 442.472656 293.886719 443.984375 293.886719 445.144531 C 293.886719 452.035156 296.777344 458.195312 304.253906 459.039062 C 311.808594 459.890625 317.773438 455.628906 322.171875 449.925781 C 323.394531 448.34375 324.875 446.054688 326.078125 443.894531 C 327.542969 441.261719 328.011719 438.660156 331.132812 437.839844 C 331.867188 437.652344 332.746094 437.78125 333.429688 438.117188 C 336.585938 439.65625 335.578125 443.5625 334.847656 445.953125 C 333.539062 450.230469 329.554688 457.191406 324.082031 464.324219 C 312.898438 478.894531 295.617188 488.714844 278.242188 493.960938 C 269.28125 496.664062 259.914062 497.953125 250.5625 497.953125 C 233.546875 497.953125 220 493.566406 209.945312 484.796875 C 199.882812 476.027344 194.855469 464.292969 194.855469 449.597656 C 194.855469 441.851562 196.988281 429.863281 201.238281 413.613281 C 201.878906 411.292969 202.328125 409.558594 202.59375 408.394531 Z M 240.394531 259.128906 " fill-opacity="1" fill-rule="nonzero"/><path fill="#ebcc90" d="M 308.871094 190.429688 C 293.128906 190.429688 280.628906 186.851562 271.351562 179.703125 C 262.050781 172.542969 257.410156 162.90625 257.410156 150.777344 C 257.410156 137.246094 263.183594 125.730469 274.734375 116.25 C 286.261719 106.769531 300.542969 102.027344 317.578125 102.027344 C 334.066406 102.027344 346.964844 105.679688 356.265625 112.957031 C 365.550781 120.25 370.183594 130.207031 370.183594 142.84375 C 370.183594 156.261719 364.335938 167.539062 352.683594 176.695312 C 341.011719 185.863281 326.410156 190.429688 308.871094 190.429688 Z M 308.871094 190.429688 " fill-opacity="1" fill-rule="nonzero"/><path fill="#ebcc90" d="M 157.335938 295.453125 C 149.53125 292.667969 143.984375 289.558594 140.679688 286.121094 C 137.378906 282.683594 135.726562 278.398438 135.726562 273.273438 C 135.726562 264.320312 140.472656 256.96875 149.96875 251.210938 C 159.464844 245.453125 171.933594 242.574219 187.378906 242.574219 C 199.21875 242.574219 208.320312 243.855469 214.675781 246.421875 C 221.035156 248.988281 224.214844 252.640625 224.214844 257.386719 C 224.214844 259.957031 223.191406 262.066406 221.144531 263.734375 C 219.097656 265.402344 216.4375 266.234375 213.164062 266.234375 C 209.070312 266.234375 205.5625 265.238281 202.648438 263.246094 C 199.726562 261.257812 198.269531 258.949219 198.269531 256.328125 C 198.269531 255.949219 198.40625 255.050781 198.675781 253.628906 C 198.953125 252.210938 199.085938 251.0625 199.085938 250.191406 C 199.085938 248.9375 198.390625 247.914062 197 247.121094 C 195.609375 246.332031 193.792969 245.933594 191.558594 245.933594 C 188.445312 245.933594 185.878906 246.808594 183.863281 248.554688 C 181.847656 250.300781 180.835938 252.457031 180.835938 255.023438 C 180.835938 257.644531 181.804688 259.796875 183.742188 261.492188 C 185.679688 263.183594 189.890625 265.089844 196.386719 267.222656 L 201.460938 268.941406 C 210.410156 271.941406 216.492188 275.054688 219.714844 278.273438 C 222.933594 281.496094 224.542969 285.75 224.542969 291.042969 C 224.542969 300.652344 219.179688 308.5625 208.457031 314.78125 C 197.734375 321 183.832031 324.113281 166.753906 324.113281 C 153.875 324.113281 143.777344 322.625 136.46875 319.652344 C 129.152344 316.675781 125.5 312.628906 125.5 307.492188 C 125.5 304.382812 126.746094 301.820312 129.226562 299.796875 C 131.710938 297.78125 134.941406 296.769531 138.929688 296.769531 C 143.625 296.769531 147.492188 297.835938 150.550781 299.960938 C 153.605469 302.089844 155.132812 304.710938 155.132812 307.820312 C 155.132812 308.914062 154.890625 310.265625 154.398438 311.875 C 153.90625 313.484375 153.664062 314.539062 153.664062 315.027344 C 153.664062 316.609375 154.617188 317.90625 156.527344 318.914062 C 158.4375 319.925781 160.945312 320.429688 164.058594 320.429688 C 168.425781 320.429688 171.96875 319.433594 174.703125 317.445312 C 177.433594 315.453125 178.792969 312.929688 178.792969 309.871094 C 178.792969 307.199219 177.878906 305.027344 176.050781 303.359375 C 174.21875 301.699219 170.007812 299.71875 163.40625 297.425781 Z M 157.335938 295.453125 " fill-opacity="1" fill-rule="nonzero"/><path fill="#ebcc90" d="M 384.5 263.527344 C 390.558594 256.601562 394.296875 251.816406 400.09375 247.953125 C 405.507812 244.34375 411.199219 242.007812 417.882812 241.886719 C 423.625 241.78125 427.640625 243.761719 430.5625 246.464844 C 433.480469 249.164062 434.941406 253.246094 434.941406 258.699219 C 434.941406 259.195312 434.914062 259.792969 434.863281 260.5 C 434.808594 261.210938 434.722656 262.222656 434.617188 263.527344 C 440.890625 256.378906 446.1875 251.734375 451.722656 248.046875 C 454.882812 245.941406 462.117188 242.394531 468.273438 241.957031 C 474.851562 241.484375 478.964844 243.792969 482.320312 246.542969 C 485.675781 249.300781 487.355469 253.132812 487.355469 258.042969 C 487.355469 258.863281 487.242188 259.957031 487.027344 261.320312 C 486.808594 262.6875 486.480469 264.433594 486.042969 266.5625 L 479.332031 295.703125 C 478.949219 297.285156 478.691406 298.484375 478.550781 299.300781 C 478.414062 300.121094 478.347656 300.71875 478.347656 301.101562 C 478.347656 303.011719 478.78125 304.5 479.652344 305.5625 C 480.527344 306.625 481.753906 307.160156 483.335938 307.160156 C 484.972656 307.160156 486.570312 306.546875 488.125 305.320312 C 489.683594 304.089844 491.441406 301.953125 493.410156 298.894531 C 493.625 298.566406 493.980469 297.992188 494.472656 297.171875 C 495.007812 296.304688 495.472656 295.390625 496.160156 294.628906 C 496.78125 293.941406 498.078125 293.066406 498.929688 293.902344 C 499.285156 294.25 499.367188 294.800781 499.304688 295.300781 C 499.070312 297.125 498.109375 298.773438 497.257812 300.363281 C 495.890625 302.933594 494.089844 305.578125 491.851562 308.304688 C 487.8125 313.328125 483.121094 317.132812 477.773438 319.71875 C 473.585938 321.746094 469.117188 322.648438 464.546875 323.289062 C 460.203125 323.902344 455.488281 323.671875 451.65625 321.320312 C 443.246094 316.136719 444.175781 305.230469 445.667969 296.84375 C 446.214844 293.792969 447.0625 290.082031 448.203125 285.714844 L 451.886719 270.738281 C 452.164062 269.589844 452.363281 268.636719 452.5 267.875 C 452.640625 267.109375 452.707031 266.511719 452.707031 266.074219 C 452.707031 264 452.242188 262.441406 451.316406 261.40625 C 450.386719 260.367188 448.945312 259.851562 446.976562 259.851562 C 442.773438 259.851562 439.308594 262.320312 436.582031 267.257812 C 433.851562 272.199219 431.230469 281.132812 428.722656 294.066406 L 423.894531 318.539062 C 423.621094 319.90625 423.210938 320.832031 422.667969 321.324219 C 422.121094 321.816406 421.164062 322.058594 419.804688 322.058594 L 395.226562 322.058594 C 393.753906 322.058594 392.742188 321.894531 392.199219 321.566406 C 391.652344 321.238281 391.378906 320.613281 391.378906 319.683594 C 391.378906 319.40625 391.457031 318.863281 391.621094 318.046875 C 391.671875 317.773438 391.699219 317.554688 391.699219 317.390625 L 401.765625 270.738281 C 401.820312 270.460938 401.902344 270.082031 402.011719 269.589844 C 402.390625 267.625 402.582031 266.449219 402.582031 266.070312 C 402.582031 263.992188 402.117188 262.4375 401.191406 261.402344 C 400.257812 260.363281 398.84375 259.84375 396.933594 259.84375 C 392.730469 259.84375 389.265625 262.316406 386.539062 267.253906 C 383.808594 272.191406 381.164062 281.125 378.601562 294.0625 L 373.773438 318.535156 C 373.558594 319.898438 373.160156 320.828125 372.589844 321.320312 C 372.015625 321.8125 371.074219 322.054688 369.761719 322.054688 L 345.347656 322.054688 C 343.765625 322.054688 342.683594 321.875 342.113281 321.519531 C 341.542969 321.164062 341.257812 320.5 341.257812 319.515625 C 341.257812 319.402344 341.28125 319.183594 341.335938 318.855469 C 341.386719 318.527344 341.5 318.011719 341.664062 317.300781 C 341.664062 317.300781 352.714844 267.621094 352.714844 267.613281 C 353.167969 265.570312 353.476562 263.378906 353.730469 261.292969 C 353.964844 259.394531 353.875 257.347656 352.847656 255.730469 C 351.289062 253.292969 348.433594 253.296875 345.957031 252.550781 C 345.351562 252.371094 344.753906 251.953125 344.636719 251.332031 C 344.554688 250.882812 344.753906 250.417969 345.078125 250.09375 C 345.816406 249.359375 346.988281 249.324219 347.960938 249.285156 C 349.46875 249.234375 350.972656 249.359375 352.476562 249.414062 C 357.386719 249.570312 362.410156 249.289062 367.304688 248.507812 C 372.3125 247.707031 377.125 246.238281 381.976562 244.8125 C 382.761719 244.585938 383.542969 244.351562 384.332031 244.125 C 386.296875 243.582031 387.472656 243.304688 387.851562 243.304688 C 388.179688 243.304688 388.476562 243.484375 388.753906 243.839844 C 389.027344 244.195312 389.160156 244.617188 389.160156 245.109375 C 386.820312 253.082031 385.269531 259.21875 384.5 263.527344 Z M 384.5 263.527344 " fill-opacity="1" fill-rule="nonzero"/><path fill="#ebcc90" d="M 359.679688 367.714844 C 365.734375 360.785156 369.476562 356 375.273438 352.136719 C 380.6875 348.527344 386.375 346.195312 393.058594 346.070312 C 398.800781 345.964844 402.820312 347.945312 405.742188 350.648438 C 408.65625 353.347656 410.117188 357.429688 410.117188 362.886719 C 410.117188 363.378906 410.09375 363.976562 410.039062 364.6875 C 409.984375 365.394531 409.902344 366.40625 409.796875 367.714844 C 416.066406 360.5625 421.363281 355.921875 426.902344 352.234375 C 430.0625 350.125 437.296875 346.582031 443.453125 346.140625 C 450.03125 345.667969 454.140625 347.976562 457.5 350.730469 C 460.855469 353.488281 462.53125 357.320312 462.53125 362.230469 C 462.53125 363.050781 462.421875 364.140625 462.203125 365.507812 C 461.984375 366.871094 461.65625 368.617188 461.21875 370.746094 L 454.507812 399.886719 C 454.125 401.46875 453.867188 402.671875 453.730469 403.488281 C 453.59375 404.308594 453.523438 404.90625 453.523438 405.285156 C 453.523438 407.195312 453.957031 408.683594 454.832031 409.746094 C 455.703125 410.8125 456.933594 411.347656 458.515625 411.347656 C 460.148438 411.347656 461.75 410.730469 463.304688 409.503906 C 464.859375 408.277344 466.617188 406.136719 468.585938 403.078125 C 468.804688 402.75 469.15625 402.179688 469.648438 401.359375 C 470.183594 400.492188 470.648438 399.574219 471.339844 398.8125 C 471.957031 398.125 473.253906 397.25 474.105469 398.089844 C 474.460938 398.4375 474.546875 398.988281 474.480469 399.484375 C 474.25 401.3125 473.285156 402.957031 472.433594 404.550781 C 471.070312 407.117188 469.269531 409.765625 467.03125 412.488281 C 462.992188 417.511719 458.296875 421.316406 452.953125 423.90625 C 448.765625 425.933594 444.292969 426.832031 439.726562 427.472656 C 435.378906 428.085938 430.664062 427.859375 426.832031 425.503906 C 418.421875 420.324219 419.355469 409.414062 420.847656 401.03125 C 421.390625 397.976562 422.238281 394.265625 423.382812 389.902344 L 427.066406 374.921875 C 427.339844 373.773438 427.542969 372.820312 427.679688 372.058594 C 427.816406 371.296875 427.886719 370.695312 427.886719 370.257812 C 427.886719 368.183594 427.421875 366.628906 426.492188 365.589844 C 425.5625 364.554688 424.121094 364.035156 422.152344 364.035156 C 417.953125 364.035156 414.484375 366.507812 411.757812 371.445312 C 409.027344 376.382812 406.410156 385.316406 403.898438 398.253906 L 399.074219 422.726562 C 398.796875 424.089844 398.390625 425.015625 397.84375 425.507812 C 397.300781 426 396.339844 426.246094 394.980469 426.246094 L 370.402344 426.246094 C 368.929688 426.246094 367.921875 426.082031 367.375 425.753906 C 366.828125 425.425781 366.554688 424.800781 366.554688 423.867188 C 366.554688 423.59375 366.632812 423.046875 366.796875 422.234375 C 366.851562 421.957031 366.878906 421.742188 366.878906 421.578125 L 376.945312 374.921875 C 376.996094 374.648438 377.082031 374.265625 377.1875 373.773438 C 377.570312 371.808594 377.757812 370.636719 377.757812 370.253906 C 377.757812 368.179688 377.292969 366.625 376.367188 365.585938 C 375.4375 364.546875 374.023438 364.03125 372.113281 364.03125 C 367.910156 364.03125 364.441406 366.5 361.71875 371.441406 C 358.984375 376.378906 356.339844 385.3125 353.777344 398.246094 L 348.953125 422.71875 C 348.734375 424.085938 348.335938 425.011719 347.765625 425.503906 C 347.195312 425.996094 346.253906 426.238281 344.941406 426.238281 L 320.523438 426.238281 C 318.941406 426.238281 317.863281 426.058594 317.289062 425.707031 C 316.71875 425.351562 316.433594 424.683594 316.433594 423.699219 C 316.433594 423.589844 316.460938 423.371094 316.511719 423.042969 C 316.566406 422.714844 316.675781 422.195312 316.839844 421.488281 C 316.839844 421.488281 327.890625 371.804688 327.890625 371.800781 C 328.347656 369.757812 328.652344 367.566406 328.910156 365.480469 C 329.140625 363.582031 329.050781 361.53125 328.023438 359.917969 C 326.46875 357.476562 323.609375 357.484375 321.132812 356.738281 C 320.53125 356.558594 319.933594 356.140625 319.816406 355.519531 C 319.730469 355.070312 319.933594 354.605469 320.253906 354.28125 C 320.996094 353.546875 322.164062 353.507812 323.140625 353.472656 C 324.648438 353.417969 326.152344 353.546875 327.652344 353.597656 C 332.566406 353.757812 337.589844 353.476562 342.484375 352.691406 C 347.492188 351.894531 352.300781 350.421875 357.15625 349 C 357.9375 348.769531 358.722656 348.539062 359.511719 348.3125 C 361.472656 347.765625 362.648438 347.492188 363.03125 347.492188 C 363.359375 347.492188 363.65625 347.671875 363.929688 348.023438 C 364.203125 348.378906 364.335938 348.804688 364.335938 349.296875 C 361.996094 357.265625 360.445312 363.40625 359.679688 367.714844 Z M 359.679688 367.714844 " fill-opacity="1" fill-rule="nonzero"/><path fill="#ebcc90" d="M 132.507812 399.605469 C 124.703125 396.824219 119.15625 393.710938 115.851562 390.277344 C 112.550781 386.835938 110.898438 382.554688 110.898438 377.425781 C 110.898438 368.476562 115.644531 361.125 125.140625 355.367188 C 134.636719 349.609375 147.105469 346.726562 162.550781 346.726562 C 174.390625 346.726562 183.492188 348.007812 189.847656 350.574219 C 196.207031 353.144531 199.386719 356.796875 199.386719 361.542969 C 199.386719 364.109375 198.363281 366.222656 196.316406 367.886719 C 194.269531 369.554688 191.613281 370.386719 188.335938 370.386719 C 184.246094 370.386719 180.734375 369.390625 177.820312 367.402344 C 174.898438 365.410156 173.441406 363.105469 173.441406 360.484375 C 173.441406 360.101562 173.578125 359.203125 173.847656 357.785156 C 174.125 356.367188 174.257812 355.21875 174.257812 354.34375 C 174.257812 353.089844 173.5625 352.070312 172.171875 351.273438 C 170.78125 350.484375 168.964844 350.089844 166.730469 350.089844 C 163.617188 350.089844 161.050781 350.960938 159.035156 352.710938 C 157.019531 354.457031 156.007812 356.609375 156.007812 359.175781 C 156.007812 361.796875 156.976562 363.949219 158.914062 365.644531 C 160.851562 367.339844 165.0625 369.242188 171.558594 371.375 L 176.632812 373.097656 C 185.582031 376.097656 191.664062 379.210938 194.886719 382.425781 C 198.105469 385.652344 199.714844 389.90625 199.714844 395.199219 C 199.714844 404.804688 194.351562 412.71875 183.628906 418.9375 C 172.90625 425.15625 159.003906 428.265625 141.925781 428.265625 C 129.046875 428.265625 118.949219 426.78125 111.640625 423.804688 C 104.324219 420.832031 100.671875 416.78125 100.671875 411.648438 C 100.671875 408.535156 101.917969 405.972656 104.398438 403.953125 C 106.882812 401.9375 110.117188 400.925781 114.101562 400.925781 C 118.796875 400.925781 122.664062 401.988281 125.722656 404.117188 C 128.777344 406.246094 130.308594 408.863281 130.308594 411.976562 C 130.308594 413.066406 130.0625 414.421875 129.570312 416.03125 C 129.078125 417.640625 128.835938 418.691406 128.835938 419.179688 C 128.835938 420.761719 129.789062 422.058594 131.699219 423.070312 C 133.609375 424.082031 136.117188 424.582031 139.230469 424.582031 C 143.597656 424.582031 147.144531 423.589844 149.875 421.597656 C 152.605469 419.609375 153.964844 417.082031 153.964844 414.023438 C 153.964844 411.351562 153.050781 409.179688 151.222656 407.515625 C 149.390625 405.851562 145.179688 403.871094 138.578125 401.582031 Z M 132.507812 399.605469 " fill-opacity="1" fill-rule="nonzero"/><path fill="#412f26" d="M 280.113281 436.035156 C 281.730469 436.429688 282.976562 437.332031 283.851562 438.765625 C 284.726562 440.195312 284.96875 441.722656 284.582031 443.335938 C 284.257812 444.664062 283.566406 445.757812 282.492188 446.621094 C 281.417969 447.480469 280.210938 447.921875 278.871094 447.957031 L 278.722656 443.246094 C 279.074219 443.253906 279.425781 443.132812 279.792969 442.878906 C 280.152344 442.625 280.394531 442.3125 280.507812 441.9375 C 280.644531 441.464844 280.585938 441.023438 280.335938 440.597656 C 280.082031 440.175781 279.71875 439.898438 279.238281 439.785156 C 278.753906 439.667969 278.304688 439.746094 277.882812 440.023438 C 277.457031 440.296875 277.179688 440.71875 277.039062 441.285156 C 276.648438 442.902344 275.875 444.132812 274.722656 444.992188 C 273.5625 445.84375 272.21875 446.085938 270.679688 445.710938 C 269.308594 445.382812 268.242188 444.605469 267.503906 443.382812 C 266.757812 442.160156 266.550781 440.859375 266.882812 439.480469 L 268.292969 433.640625 L 272.460938 434.644531 L 271.054688 440.492188 C 270.910156 441.085938 271.121094 441.449219 271.695312 441.589844 C 272.238281 441.722656 272.597656 441.429688 272.773438 440.714844 C 273.1875 439.003906 274.113281 437.699219 275.546875 436.804688 C 276.976562 435.902344 278.5 435.648438 280.113281 436.035156 Z M 280.113281 436.035156 " fill-opacity="1" fill-rule="nonzero"/><path fill="#412f26" d="M 266.511719 422.464844 C 267.101562 422.609375 267.550781 422.933594 267.851562 423.429688 C 268.152344 423.933594 268.238281 424.464844 268.101562 425.03125 C 267.957031 425.625 267.636719 426.082031 267.136719 426.402344 C 266.636719 426.722656 266.089844 426.8125 265.503906 426.667969 C 264.9375 426.53125 264.496094 426.207031 264.183594 425.6875 C 263.871094 425.175781 263.789062 424.621094 263.929688 424.027344 C 264.066406 423.457031 264.390625 423.023438 264.898438 422.714844 C 265.40625 422.417969 265.945312 422.332031 266.511719 422.464844 Z M 287.484375 427.519531 L 286.472656 431.726562 L 273.890625 428.699219 L 273.289062 431.195312 L 269.117188 430.1875 L 270.730469 423.488281 Z M 287.484375 427.519531 " fill-opacity="1" fill-rule="nonzero"/><path fill="#412f26" d="M 295.53125 394.09375 L 294.523438 398.300781 L 286.550781 396.378906 C 285.265625 396.066406 284.070312 396.257812 282.957031 396.945312 C 281.847656 397.632812 281.136719 398.605469 280.835938 399.867188 L 280.121094 402.824219 L 292.699219 405.859375 L 291.691406 410.066406 L 283.71875 408.144531 C 282.433594 407.832031 281.238281 408.023438 280.125 408.707031 C 279.015625 409.386719 278.308594 410.355469 278.007812 411.609375 L 277.300781 414.554688 L 289.878906 417.582031 L 288.871094 421.789062 L 276.289062 418.761719 L 275.683594 421.253906 L 271.515625 420.25 L 273.832031 410.617188 C 274.230469 408.960938 275.027344 407.535156 276.21875 406.339844 L 274.9375 406.03125 L 276.660156 398.886719 C 277.246094 396.457031 278.605469 394.589844 280.746094 393.277344 C 282.882812 391.964844 285.164062 391.597656 287.589844 392.1875 Z M 295.53125 394.09375 " fill-opacity="1" fill-rule="nonzero"/><path fill="#412f26" d="M 294.003906 378.378906 C 295.617188 378.769531 296.867188 379.679688 297.738281 381.109375 C 298.613281 382.539062 298.855469 384.0625 298.46875 385.675781 C 298.148438 387.003906 297.453125 388.105469 296.378906 388.964844 C 295.304688 389.820312 294.097656 390.265625 292.757812 390.296875 L 292.609375 385.585938 C 292.960938 385.597656 293.316406 385.476562 293.679688 385.222656 C 294.039062 384.96875 294.285156 384.65625 294.394531 384.28125 C 294.53125 383.808594 294.472656 383.363281 294.226562 382.941406 C 293.972656 382.515625 293.605469 382.242188 293.125 382.128906 C 292.644531 382.015625 292.191406 382.09375 291.769531 382.367188 C 291.347656 382.644531 291.066406 383.066406 290.929688 383.640625 C 290.535156 385.253906 289.761719 386.488281 288.609375 387.339844 C 287.449219 388.191406 286.105469 388.429688 284.566406 388.0625 C 283.195312 387.730469 282.136719 386.957031 281.390625 385.734375 C 280.644531 384.511719 280.4375 383.210938 280.769531 381.835938 L 282.179688 375.992188 L 286.351562 376.996094 L 284.941406 382.839844 C 284.800781 383.433594 285.011719 383.796875 285.582031 383.9375 C 286.128906 384.066406 286.488281 383.777344 286.660156 383.066406 C 287.074219 381.359375 288 380.050781 289.433594 379.15625 C 290.863281 378.246094 292.390625 377.992188 294.003906 378.378906 Z M 294.003906 378.378906 " fill-opacity="1" fill-rule="nonzero"/><path fill="#412f26" d="M 280.402344 364.8125 C 280.988281 364.957031 281.4375 365.277344 281.738281 365.777344 C 282.042969 366.28125 282.125 366.8125 281.988281 367.378906 C 281.847656 367.972656 281.523438 368.429688 281.027344 368.75 C 280.523438 369.070312 279.984375 369.160156 279.390625 369.015625 C 278.824219 368.878906 278.382812 368.554688 278.070312 368.035156 C 277.761719 367.523438 277.675781 366.96875 277.816406 366.375 C 277.957031 365.804688 278.277344 365.367188 278.785156 365.0625 C 279.300781 364.761719 279.835938 364.675781 280.402344 364.8125 Z M 301.371094 369.863281 L 300.359375 374.070312 L 287.777344 371.039062 L 287.175781 373.53125 L 283.003906 372.523438 L 284.621094 365.824219 Z M 301.371094 369.863281 " fill-opacity="1" fill-rule="nonzero"/><path fill="#412f26" d="M 309.425781 336.433594 L 308.414062 340.640625 L 300.445312 338.71875 C 299.15625 338.414062 297.960938 338.597656 296.851562 339.285156 C 295.738281 339.976562 295.03125 340.949219 294.726562 342.207031 L 294.015625 345.167969 L 306.59375 348.195312 L 305.582031 352.398438 L 297.613281 350.476562 C 296.328125 350.164062 295.128906 350.355469 294.019531 351.035156 C 292.90625 351.71875 292.203125 352.6875 291.902344 353.941406 L 291.191406 356.886719 L 303.773438 359.917969 L 302.761719 364.125 L 290.183594 361.09375 L 289.578125 363.585938 L 285.40625 362.578125 L 287.726562 352.945312 C 288.121094 351.289062 288.921875 349.867188 290.113281 348.671875 L 288.832031 348.363281 L 290.550781 341.222656 C 291.140625 338.792969 292.5 336.925781 294.636719 335.613281 C 296.777344 334.300781 299.058594 333.9375 301.480469 334.523438 Z M 309.425781 336.433594 " fill-opacity="1" fill-rule="nonzero"/><path fill="#412f26" d="M 304.386719 332.574219 C 303.609375 332.574219 302.816406 332.480469 302.011719 332.285156 C 299.402344 331.65625 297.363281 330.171875 295.957031 327.871094 C 294.546875 325.570312 294.152344 323.074219 294.78125 320.464844 L 297.078125 310.941406 L 315.273438 315.320312 L 313.929688 320.910156 C 314.207031 322.261719 314.171875 323.652344 313.835938 325.054688 C 313.203125 327.664062 311.71875 329.707031 309.421875 331.113281 C 307.828125 332.089844 306.140625 332.574219 304.386719 332.574219 Z M 298.179688 312.738281 L 296.230469 320.816406 C 295.691406 323.058594 296.019531 325.113281 297.226562 327.09375 C 298.4375 329.070312 300.117188 330.300781 302.359375 330.839844 C 304.605469 331.378906 306.65625 331.058594 308.636719 329.84375 C 310.617188 328.632812 311.839844 326.953125 312.382812 324.707031 C 312.753906 323.164062 312.691406 321.65625 312.195312 320.207031 L 311.753906 318.921875 L 312.8125 319.175781 L 313.480469 316.417969 Z M 304.371094 328.246094 C 303.933594 328.246094 303.480469 328.195312 303.027344 328.082031 C 301.546875 327.726562 300.390625 326.898438 299.601562 325.621094 C 298.8125 324.339844 298.59375 322.949219 298.953125 321.472656 L 300.234375 316.152344 L 305.589844 317.445312 C 307.050781 317.792969 308.191406 318.628906 308.992188 319.914062 C 309.792969 321.210938 310.011719 322.597656 309.664062 324.054688 C 309.308594 325.535156 308.46875 326.679688 307.171875 327.453125 C 306.28125 327.980469 305.34375 328.246094 304.371094 328.246094 Z M 301.332031 317.945312 L 300.402344 321.820312 C 300.136719 322.910156 300.289062 323.902344 300.871094 324.839844 C 301.457031 325.78125 302.277344 326.367188 303.375 326.632812 C 304.457031 326.890625 305.449219 326.738281 306.410156 326.167969 C 307.363281 325.59375 307.953125 324.789062 308.21875 323.699219 C 308.476562 322.632812 308.3125 321.652344 307.726562 320.695312 C 307.132812 319.734375 306.324219 319.148438 305.246094 318.882812 Z M 301.332031 317.945312 " fill-opacity="1" fill-rule="nonzero"/><path fill="#412f26" d="M 303.167969 310.320312 L 297.554688 308.964844 L 299.519531 300.820312 L 309.066406 303.121094 C 310.140625 303.382812 311.125 303.222656 312.082031 302.640625 C 313.035156 302.058594 313.628906 301.253906 313.882812 300.183594 C 314.148438 299.089844 313.988281 298.09375 313.40625 297.140625 C 312.820312 296.1875 312.015625 295.597656 310.941406 295.335938 L 301.390625 293.035156 L 302.75 287.382812 L 312.277344 289.679688 C 314.886719 290.308594 316.925781 291.800781 318.332031 294.113281 C 319.734375 296.425781 320.128906 298.925781 319.503906 301.535156 C 318.875 304.148438 317.386719 306.1875 315.078125 307.589844 C 312.769531 308.996094 310.277344 309.390625 307.65625 308.757812 L 303.773438 307.820312 Z M 299.347656 307.871094 L 302.070312 308.527344 L 302.671875 306.035156 L 308.007812 307.320312 C 310.257812 307.859375 312.320312 307.535156 314.300781 306.324219 C 316.285156 305.113281 317.511719 303.433594 318.054688 301.191406 C 318.59375 298.945312 318.269531 296.886719 317.058594 294.890625 C 315.847656 292.902344 314.167969 291.667969 311.929688 291.128906 L 303.851562 289.179688 L 303.191406 291.9375 L 311.292969 293.890625 C 312.75 294.242188 313.886719 295.070312 314.679688 296.363281 C 315.476562 297.65625 315.691406 299.058594 315.335938 300.535156 C 314.988281 301.988281 314.15625 303.121094 312.867188 303.910156 C 311.574219 304.699219 310.183594 304.921875 308.726562 304.566406 L 300.625 302.613281 Z M 299.347656 307.871094 " fill-opacity="1" fill-rule="nonzero"/><path fill="#412f26" d="M 320.589844 284.609375 C 321.160156 284.746094 321.605469 285.070312 321.921875 285.578125 C 322.238281 286.085938 322.328125 286.625 322.191406 287.203125 C 322.046875 287.800781 321.71875 288.253906 321.207031 288.5625 C 320.695312 288.871094 320.148438 288.953125 319.582031 288.816406 C 318.988281 288.671875 318.539062 288.351562 318.234375 287.847656 C 317.925781 287.339844 317.847656 286.789062 317.988281 286.191406 C 318.125 285.613281 318.449219 285.175781 318.949219 284.863281 C 319.445312 284.550781 319.996094 284.464844 320.589844 284.609375 Z M 320.589844 284.609375 " fill-opacity="1" fill-rule="nonzero"/><path fill="#412f26" d="M 322.335938 266.402344 C 323.53125 267.492188 324.382812 268.832031 324.894531 270.414062 C 325.410156 271.996094 325.46875 273.605469 325.070312 275.246094 C 324.488281 277.671875 323.128906 279.53125 320.992188 280.839844 C 318.851562 282.148438 316.570312 282.507812 314.148438 281.925781 C 311.722656 281.34375 309.859375 279.984375 308.550781 277.84375 C 307.246094 275.707031 306.878906 273.425781 307.46875 271 L 308.78125 265.550781 L 312.949219 266.554688 L 311.636719 272.007812 C 311.332031 273.292969 311.515625 274.484375 312.199219 275.589844 C 312.882812 276.695312 313.871094 277.40625 315.164062 277.71875 C 316.433594 278.023438 317.628906 277.839844 318.75 277.167969 C 319.875 276.496094 320.59375 275.519531 320.898438 274.234375 C 321.339844 272.402344 320.847656 270.851562 319.417969 269.582031 Z M 322.335938 266.402344 " fill-opacity="1" fill-rule="nonzero"/><path fill="#412f26" d="M 322.605469 246.714844 C 325.035156 247.300781 326.90625 248.660156 328.21875 250.800781 C 329.53125 252.9375 329.898438 255.21875 329.308594 257.644531 C 328.726562 260.066406 327.367188 261.929688 325.230469 263.238281 C 323.089844 264.542969 320.808594 264.902344 318.386719 264.320312 C 316.011719 263.75 314.148438 262.433594 312.796875 260.375 C 311.449219 258.316406 311.046875 256.132812 311.601562 253.828125 L 313.824219 244.597656 L 317.996094 245.601562 L 317.6875 246.886719 C 319.296875 246.371094 320.9375 246.3125 322.605469 246.714844 Z M 321.613281 250.925781 C 320.324219 250.613281 319.121094 250.792969 318.003906 251.472656 C 316.894531 252.148438 316.179688 253.128906 315.871094 254.410156 C 315.570312 255.667969 315.761719 256.859375 316.453125 257.980469 C 317.148438 259.101562 318.125 259.816406 319.398438 260.125 C 320.667969 260.433594 321.863281 260.242188 322.992188 259.558594 C 324.117188 258.875 324.832031 257.902344 325.132812 256.640625 C 325.441406 255.363281 325.25 254.164062 324.558594 253.054688 C 323.863281 251.9375 322.886719 251.226562 321.613281 250.925781 Z M 321.613281 250.925781 " fill-opacity="1" fill-rule="nonzero"/><path fill="#412f26" d="M 338.613281 215.242188 L 337.605469 219.449219 L 329.632812 217.53125 C 328.347656 217.21875 327.152344 217.40625 326.039062 218.097656 C 324.929688 218.785156 324.21875 219.757812 323.917969 221.015625 L 323.203125 223.976562 L 335.785156 227.007812 L 334.773438 231.210938 L 326.800781 229.289062 C 325.515625 228.976562 324.320312 229.167969 323.207031 229.851562 C 322.097656 230.535156 321.390625 231.503906 321.089844 232.757812 L 320.382812 235.699219 L 332.960938 238.726562 L 331.953125 242.933594 L 319.371094 239.902344 L 318.765625 242.394531 L 314.597656 241.390625 L 316.914062 231.757812 C 317.3125 230.101562 318.109375 228.675781 319.300781 227.480469 L 318.019531 227.167969 L 319.742188 220.023438 C 320.328125 217.59375 321.6875 215.726562 323.828125 214.414062 C 325.964844 213.101562 328.246094 212.738281 330.671875 213.320312 Z M 338.613281 215.242188 " fill-opacity="1" fill-rule="nonzero"/></svg>
